# xmcd
#
# Track frame offsets:
#	150
#	10300
#	24523
#	34497
#	45791
#	62848
#	73562
#	86387
#	98017
#	108028
#
# Disc length: 1600 seconds
#
# Revision: 0
# Processed by: cddbd v1.5.1PL2 Copyright (c) Steve Scherf et al.
# Submitted via: EasyCDDAExtractor 4.6.0.1
#
DISCID=6f063e0a
DTITLE=Jim Murphy and The Pine Barons - Go New Jersey
DYEAR=2005
DGENRE=Bluegrass
TTITLE0=Go New Jersey
TTITLE1=Jersey Blue
TTITLE2=Chatsworth Town
TTITLE3=Forked River Mountains
TTITLE4=Lenni-Lenape
TTITLE5=The Pirates Of New Jersey
TTITLE6=Run Molly, Run
TTITLE7=Polka In The Pines
TTITLE8=Welcome Home, Big J
TTITLE9=The Garden State Waltz
EXTD=
EXTT0=
EXTT1=
EXTT2=
EXTT3=
EXTT4=
EXTT5=
EXTT6=
EXTT7=
EXTT8=
EXTT9=
PLAYORDER=
